<svg width="24" height="24" viewBox="0 0 24 24" fill="none" xmlns="http://www.w3.org/2000/svg">
  <path d="M17 16.8C17 16.8 13.5 19 9 19C4.5 19 1 16.8 1 16.8" stroke="currentColor" stroke-width="2" stroke-linecap="round" stroke-linejoin="round"/>
  <path d="M21 12.2C21 12.2 19 13 17 12.2C15 11.4 15 8.5 15 8.5" stroke="currentColor" stroke-width="2" stroke-linecap="round" stroke-linejoin="round"/>
  <path d="M9 8.5C9 8.5 9 11.5 7 12.2C5 12.9 3 12.2 3 12.2" stroke="currentColor" stroke-width="2" stroke-linecap="round" stroke-linejoin="round"/>
  <path d="M19.1421 8.44772C19.1421 12.0175 16.2118 14.9478 12.642 14.9478C9.07226 14.9478 6.142 12.0175 6.142 8.44774" stroke="currentColor" stroke-width="2" stroke-linecap="round" stroke-linejoin="round"/>
  <path d="M13 5C13 6.10457 12.1046 7 11 7C9.89543 7 9 6.10457 9 5C9 3.89543 9.89543 3 11 3C12.1046 3 13 3.89543 13 5Z" fill="currentColor"/>
</svg>
