<svg width="32" height="32" viewBox="0 0 32 32" xmlns="http://www.w3.org/2000/svg">
  <circle cx="16" cy="16" r="15.5" fill="#FAFAFA" stroke="#FFC20E" stroke-width="1" />
  <path d="M10 8.5C10 7.119 11.119 6 12.5 6H14C15.933 6 17.5 7.567 17.5 9.5C17.5 11.433 15.933 13 14 13H10V8.5ZM12.5 8H14C14.828 8 15.5 8.672 15.5 9.5C15.5 10.328 14.828 11 14 11H12.5V8Z" fill="#141414"/>
  <path d="M10 15H14C15.933 15 17.5 16.567 17.5 18.5C17.5 20.433 15.933 22 14 22H12.5C11.119 22 10 20.881 10 19.5V15ZM12.5 17V19.5H14C14.828 19.5 15.5 19.052 15.5 18.5C15.5 17.948 14.828 17.5 14 17.5H12.5V17Z" fill="#141414"/>
  <path d="M21.5 6C23.433 6 25 7.567 25 9.5C25 11.433 23.433 13 21.5 13H19V22H17V6H21.5ZM21.5 11C22.328 11 23 10.328 23 9.5C23 8.672 22.328 8 21.5 8H19V11H21.5Z" fill="#141414"/>
  <path d="M9 24H26V26H9V24Z" fill="#FFC20E"/>
</svg>
