<svg width="24" height="24" viewBox="0 0 24 24" fill="none" xmlns="http://www.w3.org/2000/svg">
  <path d="M3 10.25V20C3 20.5523 3.44772 21 4 21H20C20.5523 21 21 20.5523 21 20V10.25M3 10.25V4C3 3.44772 3.44772 3 4 3H20C20.5523 3 21 3.44772 21 4V10.25M3 10.25H21" stroke="currentColor" stroke-width="2" stroke-linecap="round"/>
  <path d="M10 15L12 17L14 15" stroke="currentColor" stroke-width="2" stroke-linecap="round" stroke-linejoin="round"/>
  <path d="M12 13V17" stroke="currentColor" stroke-width="2" stroke-linecap="round"/>
  <path d="M7 7H9M7 7H5M7 7V5M7 7V9" stroke="currentColor" stroke-width="2" stroke-linecap="round"/>
  <path d="M17 7H19M17 7H15M17 7V5M17 7V9" stroke="currentColor" stroke-width="2" stroke-linecap="round"/>
</svg>
